<svg version="1.1" xmlns="http://www.w3.org/2000/svg" xmlns:xlink="http://www.w3.org/1999/xlink" width="320" height="320">
    <defs />
    <g transform="scale(2,2)">
        <g id="background-8e868796">
            <rect fill="white" stroke="none" x="0" y="0" width="160" height="160" class="dcg-svg-background" />
        </g>
        <g id="background-images-8e868796" />
        <g id="graphpaper-8e868796">
            <g id="grid-8e868796">
                <g>
                    <path fill="none" stroke="rgb(0,0,0)" class="dcg-svg-minor-gridline" paint-order="fill stroke markers" d=" M 9.5 0 L 9.5 160" stroke-opacity="0.2" stroke-miterlimit="10" stroke-dasharray="" />
                    <path fill="none" stroke="rgb(0,0,0)" class="dcg-svg-minor-gridline" paint-order="fill stroke markers" d=" M 28.5 0 L 28.5 160" stroke-opacity="0.2" stroke-miterlimit="10" stroke-dasharray="" />
                    <path fill="none" stroke="rgb(0,0,0)" class="dcg-svg-minor-gridline" paint-order="fill stroke markers" d=" M 47.5 0 L 47.5 160" stroke-opacity="0.2" stroke-miterlimit="10" stroke-dasharray="" />
                    <path fill="none" stroke="rgb(0,0,0)" class="dcg-svg-minor-gridline" paint-order="fill stroke markers" d=" M 65.5 0 L 65.5 160" stroke-opacity="0.2" stroke-miterlimit="10" stroke-dasharray="" />
                    <path fill="none" stroke="rgb(0,0,0)" class="dcg-svg-minor-gridline" paint-order="fill stroke markers" d=" M 84.5 0 L 84.5 160" stroke-opacity="0.2" stroke-miterlimit="10" stroke-dasharray="" />
                    <path fill="none" stroke="rgb(0,0,0)" class="dcg-svg-minor-gridline" paint-order="fill stroke markers" d=" M 103.5 0 L 103.5 160" stroke-opacity="0.2" stroke-miterlimit="10" stroke-dasharray="" />
                    <path fill="none" stroke="rgb(0,0,0)" class="dcg-svg-minor-gridline" paint-order="fill stroke markers" d=" M 122.5 0 L 122.5 160" stroke-opacity="0.2" stroke-miterlimit="10" stroke-dasharray="" />
                    <path fill="none" stroke="rgb(0,0,0)" class="dcg-svg-minor-gridline" paint-order="fill stroke markers" d=" M 141.5 0 L 141.5 160" stroke-opacity="0.2" stroke-miterlimit="10" stroke-dasharray="" />
                    <path fill="none" stroke="rgb(0,0,0)" class="dcg-svg-minor-gridline" paint-order="fill stroke markers" d=" M 0 128.5 L 160 128.5" stroke-opacity="0.2" stroke-miterlimit="10" stroke-dasharray="" />
                    <path fill="none" stroke="rgb(0,0,0)" class="dcg-svg-minor-gridline" paint-order="fill stroke markers" d=" M 0 64.5 L 160 64.5" stroke-opacity="0.2" stroke-miterlimit="10" stroke-dasharray="" />
                    <path fill="none" stroke="rgb(0,0,0)" class="dcg-svg-minor-gridline" paint-order="fill stroke markers" d=" M 0 32.5 L 160 32.5" stroke-opacity="0.2" stroke-miterlimit="10" stroke-dasharray="" />
                    <path fill="none" stroke="rgb(0,0,0)" class="dcg-svg-major-gridline" paint-order="fill stroke markers" d=" M 47.5 0 L 47.5 160" stroke-opacity="0.2500000000000001" stroke-miterlimit="10" stroke-dasharray="" />
                    <path fill="none" stroke="rgb(0,0,0)" class="dcg-svg-major-gridline" paint-order="fill stroke markers" d=" M 141.5 0 L 141.5 160" stroke-opacity="0.2500000000000001" stroke-miterlimit="10" stroke-dasharray="" />
                </g>
            </g>
            <g id="axis-8e868796">
                <g id="yaxis-8e868796">
                    <title>y</title>
                    <g>
                        <path fill="none" stroke="rgb(0,0,0)" class="dcg-svg-axis-line" paint-order="fill stroke markers" d=" M -141 0 L -141 160" stroke-opacity="0.9" stroke-miterlimit="10" stroke-width="1.5" stroke-dasharray="" />
                    </g>
                </g>
                <g id="xaxis-8e868796">
                    <title>x</title>
                    <g>
                        <path fill="none" stroke="rgb(0,0,0)" class="dcg-svg-axis-line" paint-order="fill stroke markers" d=" M 0 96 L 160 96" stroke-opacity="0.9" stroke-miterlimit="10" stroke-width="1.5" stroke-dasharray="" />
                    </g>
                </g>
                <g>
                    <g class="dcg-svg-axis-value">
                        <text fill="none" stroke="#ffffff" font-family="Arial" font-size="10px" font-style="normal" font-weight="normal" text-decoration="normal" x="-148.95723230698528" y="108.72" text-anchor="middle" stroke-miterlimit="2" stroke-width="3" stroke-dasharray="">0</text>
                        <text fill="#000000" stroke="none" font-family="Arial" font-size="10px" font-style="normal" font-weight="normal" text-decoration="normal" x="-148.95723230698528" y="108.72" text-anchor="middle">0</text>
                    </g>
                    <g class="dcg-svg-axis-value">
                        <text fill="none" stroke="#ffffff" font-family="Arial" font-size="10px" font-style="normal" font-weight="normal" text-decoration="normal" x="47.05882352941177" y="108.72" text-anchor="middle" stroke-miterlimit="2" stroke-width="3" stroke-dasharray="">2</text>
                        <text fill="#000000" stroke="none" font-family="Arial" font-size="10px" font-style="normal" font-weight="normal" text-decoration="normal" x="47.05882352941177" y="108.72" text-anchor="middle">2</text>
                    </g>
                    <g class="dcg-svg-axis-value">
                        <text fill="none" stroke="#ffffff" font-family="Arial" font-size="10px" font-style="normal" font-weight="normal" text-decoration="normal" x="142.8" y="108.72" text-anchor="middle" stroke-miterlimit="2" stroke-width="3" stroke-dasharray="">3</text>
                        <text fill="#000000" stroke="none" font-family="Arial" font-size="10px" font-style="normal" font-weight="normal" text-decoration="normal" x="142.8" y="108.72" text-anchor="middle">3</text>
                    </g>
                </g>
                <g class="dcg-svg-axis-label">
                    <text fill="none" stroke="#ffffff" font-family="Times" font-size="14px" font-style="italic" font-weight="normal" text-decoration="normal" x="151" y="90" text-anchor="start" stroke-miterlimit="2" stroke-width="3" stroke-dasharray="">x</text>
                    <text fill="#000000" stroke="none" font-family="Times" font-size="14px" font-style="italic" font-weight="normal" text-decoration="normal" x="151" y="90" text-anchor="start">x</text>
                </g>
                <g class="dcg-svg-axis-label" transform="translate(-133.96260340073528,25)">
                    <text fill="none" stroke="#ffffff" font-family="Times" font-size="14px" font-style="italic" font-weight="normal" text-decoration="normal" x="" y="" text-anchor="start" stroke-miterlimit="2" stroke-width="3" stroke-dasharray="">y</text>
                    <text fill="#000000" stroke="none" font-family="Times" font-size="14px" font-style="italic" font-weight="normal" text-decoration="normal" x="" y="" text-anchor="start">y</text>
                </g>
            </g>
        </g>
        <g id="expressions-8e868796">
            <g id="sketch-8e868796">
                <title>Expression 1</title>
                <path fill="#c74440" stroke="none" paint-order="stroke fill markers" d="" fill-opacity="0.4" />
                <g>
                    <path fill="none" stroke="#c74440" class="dcg-svg-curve" paint-order="fill stroke markers" d=" M 0 66 L 0 66 L 1.9531249999999998 66.22084609172623 L 3.5937499999999916 66.49024156357393 L 5.078125 66.79897040658932 L 6.523437499999991 67.15802150788767 L 7.929687500000008 67.56188778921296 L 9.335937500000004 68.01868187995171 L 10.7421875 68.52752837180947 L 12.187499999999991 69.10378961917007 L 13.671874999999998 69.7507678181845 L 15.156250000000007 70.45246638409515 L 16.67968749999999 71.22825562447036 L 18.24218749999999 72.08105117913186 L 19.882812500000004 73.03707179148381 L 21.56249999999999 74.07825855362779 L 23.281249999999993 75.20689078194209 L 25.07812499999999 76.45274830249281 L 26.953124999999996 77.82173020806829 L 28.906249999999996 79.31923769265813 L 30.93749999999999 80.95004022837793 L 33.046875000000014 82.71812834995364 L 35.27343750000001 84.66128853942394 L 37.65625 86.82128181144571 L 40.1953125 89.20572095791385 L 42.9296875 91.8578615151456 L 45.976562499999986 94.90047043859647 L 49.492187499999986 98.50174837828479 L 53.98437500000003 103.19814252238717 L 65.11718750000003 114.87611555988684 L 68.4765625 118.2861007552284 L 71.32812500000001 121.09496625359532 L 73.86718750000001 123.51160126123682 L 76.171875 125.62286556618164 L 78.28124999999997 127.47617234709583 L 80.2734375 129.14855949502044 L 82.1484375 130.6461277331174 L 83.90625 131.97664195115271 L 85.546875 133.14921144794243 L 87.109375 134.1994052013979 L 88.59375 135.13316276576552 L 90.03906249999999 135.97904242398226 L 91.40624999999999 136.71867007881337 L 92.73437499999997 137.3780543032933 L 93.98437500000001 137.94303901311196 L 95.19531250000003 138.43678995474835 L 96.36718750000003 138.86245550565587 L 97.53906250000003 139.23491812076685 L 98.67187500000001 139.54260921606487 L 99.84375000000001 139.80488580540123 L 101.01562500000001 140.0082755419353 L 102.30468750000001 140.16165903355767 L 103.828125 140.2444299092524 L 105.31250000000001 140.21847533944242 L 106.7578125 140.08816242853095 L 108.00781249999999 139.88890557662603 L 109.1015625 139.6466267979406 L 110.11718750000001 139.36333439160757 L 111.09375000000001 139.0366733620903 L 112.07031250000001 138.65557294773788 L 113.04687500000001 138.21880154980425 L 114.02343750000001 137.72511866776102 L 115.00000000000001 137.17327489929193 L 115.97656250000001 136.56201194029398 L 116.99218749999999 135.8619043145693 L 118.00781250000001 135.09472256916047 L 119.0625 134.22549015430695 L 120.11718749999999 133.28073403915528 L 121.2109375 132.2194583060225 L 122.3046875 131.07334682620422 L 123.43749999999999 129.79488319900702 L 124.60937499999999 128.3722520148949 L 125.78124999999999 126.84554341027797 L 126.9921875 125.1561168332164 L 128.20312500000003 123.35045168129585 L 129.45312500000003 121.36183096312396 L 130.703125 119.24364006526002 L 131.99218750000003 116.9204409110211 L 133.3203125 114.37602328824983 L 134.64843750000003 111.67498978470388 L 136.01562500000003 108.72711114315547 L 137.38281250000003 105.60546743741764 L 138.7890625 102.20912961749582 L 140.1953125 98.62031630314976 L 141.640625 94.72657727037358 L 143.0859375 90.61997433918509 L 144.5703125 86.1756618954737 L 146.0546875 81.49629556729195 L 147.578125 76.44370454667296 L 149.140625 70.99227745918006 L 150.703125 65.26179462534469 L 152.3046875 59.091664795560916 L 153.90625 52.61451011724239 L 155.54687500000003 45.65360297183673 L 157.1875 38.35535391221168 L 158.86718750000003 30.525731794665205 L 160 25.036800000000085" stroke-linecap="round" stroke-linejoin="round" stroke-miterlimit="10" stroke-width="2.5" stroke-opacity="0.9" stroke-dasharray="" />
                </g>
            </g>
        </g>
        <g id="labels-8e868796" />
    </g>
</svg>